<svg xmlns="http://www.w3.org/2000/svg" viewBox="0 0 960 640" role="img" aria-labelledby="title desc"><title id="title">A dog and cat in a garden</title><desc id="desc">A warm, simple illustration of a seated dog and cat among leaves.</desc><rect width="960" height="640" rx="36" fill="#e8ede2"/><circle cx="760" cy="130" r="70" fill="#ead1b9"/><path d="M0 500Q190 430 360 500t330 0 270 0v140H0z" fill="#d2ddcb"/><g fill="#245342"><path d="M88 458q60-100 120 0-60 58-120 0M120 390q42-82 84 0-42 46-84 0M735 430q55-100 110 0-55 54-110 0M780 355q35-70 70 0-35 40-70 0"/></g><g transform="translate(220 215)"><path d="M52 188c0-64 42-102 102-102s105 38 105 102v82H52z" fill="#9b4a2c"/><circle cx="156" cy="85" r="78" fill="#c77b4b"/><path d="M89 47 55 4q-8-14 7-16l60 43M218 46l34-42q10-12-6-17l-56 42" fill="#9b4a2c"/><ellipse cx="156" cy="115" rx="36" ry="26" fill="#f4efe5"/><circle cx="132" cy="81" r="6" fill="#26332d"/><circle cx="180" cy="81" r="6" fill="#26332d"/><path d="M148 111q8-8 16 0-8 11-16 0M156 121v8m0 0q-9 8-17 0m17 0q9 8 17 0" fill="none" stroke="#26332d" stroke-width="5" stroke-linecap="round"/><path d="M67 235q-42 7-49 39 29 18 61-4M232 233q45 6 53 39-26 20-62-1" fill="none" stroke="#9b4a2c" stroke-width="19" stroke-linecap="round"/></g><g transform="translate(520 275)"><path d="M46 148 30 45q-3-20 14-12l57 42 52-42q17-9 17 12l-9 103v102H56z" fill="#26332d"/><ellipse cx="103" cy="142" rx="84" ry="76" fill="#404a44"/><ellipse cx="103" cy="172" rx="40" ry="29" fill="#f4efe5"/><circle cx="75" cy="126" r="6" fill="#f4efe5"/><circle cx="131" cy="126" r="6" fill="#f4efe5"/><path d="M96 167q7-7 14 0-7 10-14 0M103 177v9m0 0q-8 7-15 0m15 0q8 7 15 0" fill="none" stroke="#26332d" stroke-width="4" stroke-linecap="round"/></g></svg>